<svg width="174" height="219" viewBox="0 0 174 219" fill="none" xmlns="http://www.w3.org/2000/svg">
<path d="M36.5552 45.5656C38.5866 48.1772 37.706 50.8228 37.675 53.5231C38.8802 54.648 36.4163 56.4439 34.2687 54.882C32.492 53.5898 29.9341 52.79 27.8227 52.79C22.2624 52.79 17.8158 51.388 15.2468 57.1685C14.3521 59.1814 13.9645 62.2453 12.3765 63.8334C11.7617 64.4482 8.90722 67.0396 8.11963 67.2146C6.54303 67.5649 7.35973 72.3029 8.43585 73.2714C10.0449 74.7196 11.59 75.9696 12.717 77.9418C15.4222 82.6758 22.0185 79.0777 24.1983 83.0013C26.0357 86.3088 29.7139 89.1066 30.2065 93.0474C30.5921 96.1327 25.5507 95.4372 25.4145 97.8881C25.2731 100.433 25.6122 102.552 24.4415 104.894C23.3692 107.038 21.4739 107.767 21.4739 110.367V113.869C21.4739 116.164 23.5084 115.716 24.8794 116.813C25.8654 117.601 31.0327 120.231 29.6957 121.434C28.6483 122.377 27.7728 122.574 27.1659 123.94C25.772 127.076 27.3574 128.537 30.4497 128.537C32.0634 128.537 33.3679 128.859 34.8282 129.632C37.0068 130.785 36.2303 131.098 37.139 132.916C38.8634 136.365 35.2571 135.583 34.6336 138.389C34.0371 141.073 37.5416 141.475 37.6742 143.862C37.9113 148.13 33.0157 155.355 35.266 159.405C36.396 161.439 37.153 165.31 38.5499 166.63C40.9896 168.934 38.656 171.287 40.0823 173.854C41.0005 175.507 38.322 188.522 39.8634 188.522C44.5487 188.522 46.9144 186.116 50.1284 183.487C50.6484 183.061 53.8744 180.223 53.8744 182.173C53.8744 184.074 54.8657 184.864 56.5015 184.046C58.253 183.171 58.2529 179.394 58.2529 177.596V177.576C58.2529 174.856 61.3178 176.972 61.3178 179.108C61.3178 182.531 62.7389 182.615 64.8206 184.581C68.6035 188.154 67.4476 180.188 67.4476 178.889C67.4476 177.221 66.6963 167.068 68.9801 167.068C72.0257 167.068 72.2639 170.252 72.2639 172.76C72.2639 174.893 71.885 178.285 74.891 178.452C77.86 178.616 77.9559 178.76 77.9559 181.298C77.9559 183.945 78.0486 185.354 79.7073 187.427C81.3195 189.443 88.0318 184.912 88.902 183.268C90.8549 179.579 92.8426 176.731 92.8426 172.322C92.8426 168.142 93.2078 164.128 94.2535 160.062C94.8226 157.849 96.6568 152.898 99.313 156.219C100.513 157.719 98.9598 165.391 98.5346 167.092C98.1219 168.743 94.0717 176.262 98.1941 176.262C102.446 176.262 103.443 174.864 104.251 171.227C104.922 168.207 105.347 160.742 107.535 158.554C109.408 156.681 111.207 161.867 111.573 162.689C112.167 164.027 112.789 170.132 114.078 170.132C117.428 170.132 117.232 169.112 118.335 166.63C120.3 162.208 118.775 154.987 123.686 152.181C127.153 150.2 133.549 148.728 134.851 154.589C135.925 159.42 135.586 164.43 137.162 169.16C138.414 172.915 138.298 176.403 138.841 180.203C139.205 182.756 142.52 185.664 143.73 188.084C145.807 192.239 145.434 197.194 147.792 201.438C149.364 204.268 147.961 207.299 150.638 209.976C152.736 212.075 153.689 214.855 156.111 216.739C157.267 217.638 161.199 216.479 162.022 215.449C163.753 213.285 160.238 211.332 158.957 209.976C157.071 207.98 157.206 205.328 157.206 202.752C157.206 199.858 165.618 205.133 166.206 205.403C168.649 206.526 171.511 205.08 172.628 202.971C174.035 200.313 172.53 198.517 172.53 195.746C172.53 192.344 170.499 188.576 171.241 185.238C171.994 181.852 171.655 178.138 171.655 174.608C171.655 167.605 170.106 161.003 169.052 154.151C168.468 150.356 167.097 146.155 165.087 142.889C163.625 140.513 161.348 136.778 160.733 134.01C160.115 131.231 157.57 129.154 156.768 126.348C156.042 123.807 155.553 121.022 155.454 118.369C155.23 112.322 150.833 110.148 145.384 110.148C141.457 110.148 137.941 123.005 137.941 126.129C137.941 128.18 137.31 130.238 135.849 131.699C133.732 133.816 132.287 130.768 131.373 129.17C129.274 125.496 127.454 132.327 127.189 132.478C124.35 134.1 121.775 130.789 120.524 128.537C119.15 126.064 118.016 124.899 119.551 122.213C120.457 120.628 119.628 116.999 117.362 116.715C115.472 116.479 119.153 110.819 119.113 110.148C119.035 108.811 117.252 109.518 118.14 107.521C118.684 106.299 117.899 104.655 118.262 103.385C119.9 97.6521 125.554 95.3962 131.349 93.9474C137.386 92.4381 146.215 89.0261 149.227 83.0013C149.98 81.4967 149.789 77.958 150.176 76.2147C150.563 74.4723 150.983 70.2905 152.487 69.0876C154.132 67.7715 162.602 63.2368 158.3 59.7955C156.55 58.3954 153.217 57.3327 151.076 56.2928C147.88 54.7406 144.368 54.726 141.224 53.0333C137.425 50.9874 131.938 52.79 127.87 52.79C123.105 52.79 118.627 53.9974 113.956 54.1036C109.603 54.2025 105.379 54.4354 101.064 54.1036C97.7633 53.8496 96.1733 51.4065 92.648 53.0089C90.1258 54.1554 88.3983 54.5414 85.6182 54.5414C82.817 54.5414 81.5312 52.2718 79.2694 50.9413C78.1169 50.2633 73.8218 50.7968 73.1396 49.944C72.5102 49.1573 71.3538 48.875 70.7315 47.7548C70.1958 46.7906 70.3021 45.5925 69.7342 44.8115C68.9427 43.7232 70.0691 41.3502 69.5396 40.0925C68.862 38.4834 68.7612 36.2696 68.7612 34.4978V23.4544C68.7612 19.2377 68.4438 17.0911 65.2584 14.2597C62.6385 11.9309 60.9282 14.1727 59.7853 16.23C58.468 18.6012 59.9661 21.703 56.2826 21.703C53.8239 21.703 50.7806 19.8156 48.6203 18.7354C46.267 17.5588 44.2461 16.0478 42.6851 14.0407C40.8298 11.6553 40.9464 9.03424 39.7661 6.37845C39.0689 4.80978 35.0807 1.97112 33.8309 4.62707C33.1379 6.09961 36.3515 8.96193 33.5146 10.538C29.1342 12.9716 25.2125 7.71551 22.1063 5.9406C20.4746 5.00819 18.7041 2 16.8765 2C12.9131 2 15.3807 4.9097 13.9332 6.71899C12.2157 8.86597 6.57103 12.9259 9.31155 16.3516C10.8563 18.2826 8.44522 20.7653 8.33855 22.5787C8.17047 25.4362 8.85458 26.836 10.5278 28.9275C11.8092 30.5292 14.1724 30.072 15.6846 31.4329C17.0298 32.6435 18.3973 33.6037 19.5279 35.0573C22.7958 39.2588 25.1829 41.0113 30.2308 43.2547C32.4623 44.2465 34.8454 43.3673 36.5552 45.5656Z" fill="#84CC16"/>
<path d="M32.4342 53.6657C32.4342 50.9159 33.3824 48.2232 31.3153 45.5656C29.6055 43.3673 27.2224 44.2465 24.9909 43.2547C19.943 41.0113 17.5559 39.2588 14.288 35.0573C13.1574 33.6037 11.7898 32.6435 10.4447 31.4329C8.93247 30.072 6.56929 30.5292 5.28786 28.9275C3.61466 26.836 2.93054 25.4362 3.09863 22.5787C3.2053 20.7653 5.61641 18.2826 4.07163 16.3516C1.33111 12.9259 6.97575 8.86597 8.69331 6.71899C10.1407 4.9097 7.6732 2 11.6366 2C13.4642 2 15.2347 5.00819 16.8664 5.94061C19.9726 7.71551 23.8943 12.9716 28.2747 10.538C31.1116 8.96193 27.898 6.09961 28.5909 4.62707C29.8408 1.97112 33.829 4.80978 34.5262 6.37845C35.7065 9.03424 35.5899 11.6553 37.4451 14.0407C39.0062 16.0478 41.0271 17.5588 43.3804 18.7354C45.5407 19.8156 48.584 21.703 51.0427 21.703C54.7262 21.703 53.2281 18.6012 54.5454 16.23C55.6883 14.1727 57.3986 11.9309 60.0185 14.2597C63.2039 17.0911 63.5212 19.2378 63.5212 23.4544C63.5212 27.1355 63.5212 30.8167 63.5212 34.4978C63.5212 36.2696 63.6221 38.4834 64.2996 40.0925C64.8292 41.3502 63.7028 43.7232 64.4942 44.8115C65.0622 45.5925 64.9559 46.7906 65.4915 47.7548C66.1139 48.875 67.2703 49.1573 67.8997 49.944C68.5819 50.7968 72.8769 50.2633 74.0295 50.9413C76.2913 52.2718 77.5771 54.5414 80.3783 54.5414C83.1584 54.5414 84.8859 54.1554 87.4081 53.0089C90.9334 51.4065 92.5234 53.8496 95.8245 54.1036C100.139 54.4354 104.363 54.2025 108.717 54.1036C113.387 53.9974 117.865 52.79 122.63 52.79C126.698 52.79 132.185 50.9874 135.985 53.0333C139.128 54.726 142.64 54.7406 145.836 56.2928C147.977 57.3327 151.311 58.3954 153.061 59.7955C157.362 63.2368 148.892 67.7715 147.247 69.0876C145.743 70.2905 145.323 74.4723 144.936 76.2147C144.549 77.958 144.74 81.4967 143.987 83.0013C140.975 89.0261 132.146 92.4381 126.109 93.9475C120.314 95.3962 114.66 97.6521 113.022 103.385C112.659 104.655 113.444 106.299 112.9 107.521C112.013 109.518 113.795 108.811 113.873 110.148C113.913 110.819 110.232 116.479 112.122 116.715C114.388 116.999 115.217 120.628 114.311 122.213C112.776 124.899 113.91 126.064 115.284 128.537C116.535 130.789 119.11 134.1 121.949 132.478C122.214 132.327 124.034 125.496 126.133 129.17C127.047 130.768 128.492 133.816 130.609 131.699C132.07 130.238 132.701 128.18 132.701 126.129C132.701 123.005 136.217 110.148 140.144 110.148C145.593 110.148 149.991 112.322 150.215 118.369C150.313 121.022 150.802 123.807 151.528 126.348C152.33 129.154 154.875 131.231 155.493 134.01C156.108 136.778 158.385 140.513 159.847 142.889C161.857 146.155 163.228 150.356 163.812 154.151C164.866 161.003 166.415 167.605 166.415 174.608C166.415 178.138 166.754 181.852 166.001 185.238C165.26 188.576 167.291 192.344 167.291 195.746C167.291 198.517 168.795 200.313 167.388 202.971C166.271 205.08 163.409 206.526 160.966 205.403C160.378 205.133 151.966 199.858 151.966 202.752C151.966 205.328 151.831 207.98 153.717 209.976C154.998 211.332 158.513 213.285 156.782 215.449C155.959 216.479 152.027 217.638 150.871 216.739C148.449 214.855 147.497 212.075 145.398 209.976C142.721 207.299 144.124 204.268 142.552 201.438C140.194 197.194 140.567 192.239 138.49 188.084C137.28 185.664 133.965 182.756 133.601 180.203C133.058 176.403 133.174 172.915 131.922 169.159C130.346 164.43 130.685 159.42 129.612 154.589C128.309 148.728 121.913 150.2 118.446 152.181C113.535 154.987 115.06 162.208 113.095 166.63C111.992 169.112 112.188 170.132 108.838 170.132C107.549 170.132 106.927 164.027 106.333 162.689C105.967 161.867 104.168 156.681 102.295 158.554C100.107 160.742 99.682 168.207 99.011 171.227C98.2029 174.864 97.2059 176.262 92.9541 176.262C88.8318 176.262 92.882 168.743 93.2947 167.092C93.7199 165.391 95.2734 157.719 94.0731 156.219C91.4168 152.898 89.5827 157.849 89.0135 160.062C87.9679 164.128 87.6027 168.142 87.6027 172.322C87.6027 176.731 85.615 179.579 83.6621 183.268C82.7919 184.912 76.0796 189.443 74.4674 187.427C72.8087 185.354 72.716 183.945 72.716 181.298C72.716 178.76 72.6201 178.616 69.6511 178.452C66.6451 178.285 67.024 174.893 67.024 172.76C67.024 170.252 66.7857 167.068 63.7402 167.068C61.4563 167.068 62.2077 177.221 62.2077 178.889C62.2077 180.188 63.3636 188.154 59.5806 184.581C57.499 182.615 56.0779 182.531 56.0779 179.108C56.0779 176.972 53.013 174.856 53.013 177.576C53.013 179.366 53.0195 183.167 51.2616 184.046C49.6258 184.864 48.6345 184.074 48.6345 182.173C48.6345 180.223 45.4084 183.061 44.8885 183.487C41.6744 186.116 39.3088 188.522 34.6235 188.522C33.0821 188.522 35.7605 175.507 34.8424 173.854C33.4161 171.287 35.7497 168.934 33.3099 166.63C31.9131 165.31 31.1561 161.439 30.0261 159.405C27.7758 155.355 32.6714 148.13 32.4342 143.862C32.3016 141.475 28.7972 141.073 29.3937 138.389C30.0171 135.583 33.6235 136.365 31.8991 132.916C30.9904 131.098 31.7669 130.785 29.5883 129.632C28.128 128.859 26.8235 128.537 25.2098 128.537C22.1175 128.537 20.5321 127.076 21.926 123.94C22.5329 122.574 23.4084 122.377 24.4557 121.434C25.7928 120.231 20.6254 117.601 19.6394 116.813C18.2684 115.716 16.234 116.164 16.234 113.869C16.234 112.702 16.234 111.534 16.234 110.367C16.234 107.767 18.1292 107.038 19.2016 104.894C20.3723 102.552 20.0332 100.433 20.1746 97.8881C20.3107 95.4373 25.3522 96.1327 24.9666 93.0474C24.4739 89.1066 20.7958 86.3088 18.9583 83.0013C16.7786 79.0777 10.1823 82.6759 7.47708 77.9418C6.35013 75.9696 4.80502 74.7196 3.19593 73.2714C2.11981 72.3029 1.30311 67.5649 2.87971 67.2146C3.6673 67.0396 6.52176 64.4482 7.13653 63.8334C8.72463 62.2453 9.11221 59.1814 10.0068 57.1685C12.5759 51.388 17.0225 52.79 22.5827 52.79C24.6942 52.79 27.2521 53.5898 29.0288 54.882C31.3776 56.5902 34.1047 54.2821 31.9964 53.2279" stroke="black" stroke-width="3" stroke-linecap="round"/>
<mask id="path-3-outside-1_137_43" maskUnits="userSpaceOnUse" x="98.4319" y="33.8062" width="39" height="55" fill="black">
<rect fill="white" x="98.4319" y="33.8062" width="39" height="55"/>
<path fill-rule="evenodd" clip-rule="evenodd" d="M132.998 53.2674C132.998 56.837 131.802 60.124 129.794 62.7409L117.715 80.8767L105.636 62.7411C103.628 60.1241 102.432 56.837 102.432 53.2674C102.432 44.7284 109.274 37.8062 117.715 37.8062C126.156 37.8062 132.998 44.7284 132.998 53.2674ZM117.603 62.8148C122.912 62.8148 127.216 58.4605 127.216 53.0892C127.216 47.7179 122.912 43.3636 117.603 43.3636C112.293 43.3636 107.989 47.7179 107.989 53.0892C107.989 58.4605 112.293 62.8148 117.603 62.8148Z"/>
</mask>
<path fill-rule="evenodd" clip-rule="evenodd" d="M132.998 53.2674C132.998 56.837 131.802 60.124 129.794 62.7409L117.715 80.8767L105.636 62.7411C103.628 60.1241 102.432 56.837 102.432 53.2674C102.432 44.7284 109.274 37.8062 117.715 37.8062C126.156 37.8062 132.998 44.7284 132.998 53.2674ZM117.603 62.8148C122.912 62.8148 127.216 58.4605 127.216 53.0892C127.216 47.7179 122.912 43.3636 117.603 43.3636C112.293 43.3636 107.989 47.7179 107.989 53.0892C107.989 58.4605 112.293 62.8148 117.603 62.8148Z" fill="black"/>
<path d="M129.794 62.7409L126.621 60.3057L126.539 60.412L126.465 60.5236L129.794 62.7409ZM117.715 80.8767L114.386 83.094L117.715 88.0925L121.044 83.094L117.715 80.8767ZM105.636 62.7411L108.965 60.5237L108.891 60.4121L108.809 60.3057L105.636 62.7411ZM132.967 65.1762C135.495 61.882 136.998 57.7441 136.998 53.2674H128.998C128.998 55.9298 128.109 58.366 126.621 60.3057L132.967 65.1762ZM121.044 83.094L133.123 64.9583L126.465 60.5236L114.386 78.6593L121.044 83.094ZM102.307 64.9584L114.386 83.094L121.044 78.6593L108.965 60.5237L102.307 64.9584ZM98.4319 53.2674C98.4319 57.7442 99.9346 61.8821 102.463 65.1764L108.809 60.3057C107.321 58.3661 106.432 55.9298 106.432 53.2674H98.4319ZM117.715 33.8062C107.022 33.8062 98.4319 42.5631 98.4319 53.2674H106.432C106.432 46.8937 111.527 41.8062 117.715 41.8062V33.8062ZM136.998 53.2674C136.998 42.5631 128.408 33.8062 117.715 33.8062V41.8062C123.903 41.8062 128.998 46.8937 128.998 53.2674H136.998ZM123.216 53.0892C123.216 56.2952 120.66 58.8148 117.603 58.8148V66.8148C125.165 66.8148 131.216 60.6258 131.216 53.0892H123.216ZM117.603 47.3636C120.66 47.3636 123.216 49.8832 123.216 53.0892H131.216C131.216 45.5526 125.165 39.3636 117.603 39.3636V47.3636ZM111.989 53.0892C111.989 49.8832 114.546 47.3636 117.603 47.3636V39.3636C110.041 39.3636 103.989 45.5526 103.989 53.0892H111.989ZM117.603 58.8148C114.546 58.8148 111.989 56.2952 111.989 53.0892H103.989C103.989 60.6258 110.041 66.8148 117.603 66.8148V58.8148Z" fill="white" mask="url(#path-3-outside-1_137_43)"/>
<mask id="path-5-outside-2_137_43" maskUnits="userSpaceOnUse" x="37" y="96" width="39" height="55" fill="black">
<rect fill="white" x="37" y="96" width="39" height="55"/>
<path fill-rule="evenodd" clip-rule="evenodd" d="M71.5662 115.461C71.5662 119.031 70.3705 122.318 68.3621 124.935L56.2831 143.071L44.2042 124.935C42.1958 122.318 41 119.031 41 115.461C41 106.922 47.8425 100 56.2831 100C64.7237 100 71.5662 106.922 71.5662 115.461ZM56.1711 125.009C61.4805 125.009 65.7846 120.654 65.7846 115.283C65.7846 109.912 61.4805 105.557 56.1711 105.557C50.8616 105.557 46.5575 109.912 46.5575 115.283C46.5575 120.654 50.8616 125.009 56.1711 125.009Z"/>
</mask>
<path fill-rule="evenodd" clip-rule="evenodd" d="M71.5662 115.461C71.5662 119.031 70.3705 122.318 68.3621 124.935L56.2831 143.071L44.2042 124.935C42.1958 122.318 41 119.031 41 115.461C41 106.922 47.8425 100 56.2831 100C64.7237 100 71.5662 106.922 71.5662 115.461ZM56.1711 125.009C61.4805 125.009 65.7846 120.654 65.7846 115.283C65.7846 109.912 61.4805 105.557 56.1711 105.557C50.8616 105.557 46.5575 109.912 46.5575 115.283C46.5575 120.654 50.8616 125.009 56.1711 125.009Z" fill="black"/>
<path d="M68.3621 124.935L65.1889 122.5L65.1073 122.606L65.033 122.717L68.3621 124.935ZM56.2831 143.071L52.9539 145.288L56.2831 150.286L59.6123 145.288L56.2831 143.071ZM44.2042 124.935L47.5333 122.718L47.459 122.606L47.3774 122.5L44.2042 124.935ZM71.5354 127.37C74.0635 124.076 75.5662 119.938 75.5662 115.461H67.5662C67.5662 118.124 66.6775 120.56 65.1889 122.5L71.5354 127.37ZM59.6123 145.288L71.6913 127.152L65.033 122.717L52.9539 140.853L59.6123 145.288ZM40.875 127.152L52.9539 145.288L59.6123 140.853L47.5333 122.718L40.875 127.152ZM37 115.461C37 119.938 38.5028 124.076 41.0309 127.37L47.3774 122.5C45.8887 120.56 45 118.124 45 115.461H37ZM56.2831 96C45.5898 96 37 104.757 37 115.461H45C45 109.088 50.0952 104 56.2831 104V96ZM75.5662 115.461C75.5662 104.757 66.9764 96 56.2831 96V104C62.471 104 67.5662 109.088 67.5662 115.461H75.5662ZM61.7846 115.283C61.7846 118.489 59.2278 121.009 56.1711 121.009V129.009C63.7332 129.009 69.7846 122.82 69.7846 115.283H61.7846ZM56.1711 109.557C59.2278 109.557 61.7846 112.077 61.7846 115.283H69.7846C69.7846 107.746 63.7332 101.557 56.1711 101.557V109.557ZM50.5575 115.283C50.5575 112.077 53.1143 109.557 56.1711 109.557V101.557C48.6089 101.557 42.5575 107.746 42.5575 115.283H50.5575ZM56.1711 121.009C53.1143 121.009 50.5575 118.489 50.5575 115.283H42.5575C42.5575 122.82 48.6089 129.009 56.1711 129.009V121.009Z" fill="white" mask="url(#path-5-outside-2_137_43)"/>
</svg>
