<svg width="186" height="161" viewBox="0 0 186 161" fill="none" xmlns="http://www.w3.org/2000/svg">
<path d="M8.80716 133.726C8.3937 133.778 6.05944 139.688 5.68205 140.443C5.30563 141.195 5.22567 141.998 5.70537 140.559C6.53959 138.056 7.60372 136.002 9.46016 134.146C12.0957 131.51 7.43099 142.611 7.61776 143.078C7.93282 143.865 8.80657 141.858 9.29691 141.165C10.9219 138.871 12.4541 136.488 14.2644 134.332C15.8119 132.489 20.3018 128.909 17.4828 133.843C16.8011 135.035 11.2624 141.832 11.9322 143.171C12.1119 143.53 19.8802 134.548 20.5612 133.726C29.0653 123.462 17.6211 140.789 18.5556 142.775C18.6279 142.928 31.5423 125.805 22.7068 140.163C22.2618 140.886 17.8765 148.904 19.5817 147.859C23.2162 145.631 25.7061 140.536 28.6305 137.434C30.5087 135.442 30.5474 135.407 29.2835 138.25C27.1139 143.132 23.8299 147.658 22.5203 152.896C21.2472 157.989 27.3367 149.018 27.4178 148.885C30.0984 144.482 32.1187 139.007 35.8369 135.288C40.0673 131.058 27.3081 157.087 31.3358 152.663C35.1564 148.467 37.1538 142.848 40.1514 138.087C41.0964 136.586 48.0894 126.739 46.7281 133.912C45.8445 138.568 43.0411 142.633 42.157 147.299C41.3553 151.531 47.7054 141.492 48.2207 140.676C49.635 138.436 50.9507 136.149 52.2087 133.819C52.2547 133.734 53.9208 130.745 54.0511 131.347C54.9523 135.515 51.4187 141.512 50.4362 145.503C49.2736 150.226 52.7568 145.682 53.9578 144.174C54.8908 143.002 59.8213 136.86 59.7415 137.411C59.1575 141.441 55.9168 145.256 55.9168 149.328C55.9168 151.247 61.302 144.321 61.7938 143.708C68.639 135.173 60.3778 151.426 62.8666 149.538C64.3651 148.401 66.4287 144.988 68.3705 144.71C69.3745 144.567 67.4044 149.767 67.2511 150.424C67.0056 151.476 70.2648 148.391 70.5161 148.092C71.8902 146.458 73.1416 146.223 72.7783 148.838C72.7046 149.369 71.2359 153.439 72.3818 152.85C74.6016 151.708 76.1421 149.143 78.7953 148.745C80.0031 148.564 78.3849 153.284 78.6087 153.992C79.2095 155.895 83.7852 151.334 84.3691 150.937C90.2011 146.98 82.9002 159.208 86.8879 155.368C88.3792 153.932 90.1993 151.27 92.2518 150.611C93.8291 150.104 92.0186 155.125 92.0186 155.578C92.0186 155.878 101.617 145.619 99.6448 151.753C99.4048 152.5 97.7973 155.107 99.7147 153.829C102.181 152.185 103.713 149.454 106.245 147.765C108.639 146.17 103.049 156.89 108.88 150.494C110.826 148.36 112.397 145.087 114.99 143.661C117.412 142.329 114.815 148.773 114.687 149.491C113.98 153.453 122.124 142.858 122.383 143.148C123.306 144.179 119.811 154.777 124.436 145.713C124.626 145.339 128.027 139.972 128.027 142.215C128.027 143.172 126.023 146.659 126.418 147.252C126.522 147.409 133.028 134.167 131.479 142.355C131.155 144.067 136.423 136.029 136.423 139.603" stroke="#84CC16" stroke-width="3" stroke-linecap="round"/>
<path d="M52.0455 116.095C51.8117 119.134 50.4625 122.093 49.3169 124.864C49.1053 125.375 45.1175 133.345 47.7543 130.181C51.0354 126.244 53.5365 121.664 57.0363 117.914C59.982 114.758 61.0432 115.362 59.6717 119.476C57.8725 124.874 54.7462 129.779 53.1649 135.242C52.4128 137.84 58.0034 130.333 58.5522 129.481C61.8138 124.423 64.3125 118.622 68.3473 114.112C71.6507 110.42 69.572 115.469 68.7438 117.447C66.3257 123.224 62.975 128.662 61.3975 134.775C60.0023 140.182 66.0221 130.479 66.5282 129.668C70.544 123.23 73.8991 116.643 78.8187 110.801C81.0327 108.172 83.9939 105.243 81.6406 110.754C78.3997 118.345 73.8396 125.27 70.2363 132.676C66.5717 140.209 75.2012 127.434 75.8802 126.45C81.1813 118.765 86.6852 111.13 92.5085 103.828C92.914 103.319 95.5514 99.4469 96.5898 99.793C97.4611 100.083 95.6556 104.279 95.5636 104.504C92.235 112.641 87.0344 119.932 83.2265 127.849C80.4925 133.533 82.8565 130.837 85.3487 127.429C91.0164 119.678 96.057 111.551 101.417 103.594C102.48 102.016 108.278 95.4919 104.939 101.239C99.9918 109.753 94.4439 117.848 89.7798 126.543C89.6816 126.726 86.4899 133.28 86.9812 132.84C89.6739 130.426 91.6104 126.745 93.6512 123.814C99.0276 116.093 104.788 108.612 110.513 101.146C112.927 97.996 116.584 94.1711 113.381 100.726C109.661 108.34 104.072 114.875 100.251 122.438C100.223 122.494 98.167 127.401 98.4555 127.289C100.779 126.386 103.576 121.686 105.032 119.966C110.846 113.099 116.319 105.972 122.057 99.0467C123.008 97.899 124.813 94.5908 125.322 95.9915C125.713 97.067 123.174 100.575 122.757 101.262C118.083 108.952 112.704 116.199 108.017 123.884C103.655 131.038 110.672 123.542 112.355 121.412C117.533 114.858 122.256 107.884 127.724 101.565C132.244 96.3419 127.462 104.695 126.488 106.276C123.103 111.77 118.96 116.924 116.087 122.718C114.165 126.592 122.859 117.19 123.503 116.421C128.616 110.309 133.77 103.491 140.341 98.8368C144.149 96.1394 137.346 105.76 136.75 106.533C134.761 109.109 132.736 111.684 131.106 114.509C130.778 115.077 130.347 116.788 130.919 116.468C136.174 113.529 140.242 107.187 144.306 102.848C144.82 102.299 151.84 95.5953 149.903 98.8368C147.179 103.393 143.021 106.974 140.388 111.617C139.297 113.541 147.086 107.11 147.804 106.393C150.352 103.845 152.686 98.783 155.733 96.971C161.146 93.7526 140.984 116.303 146.638 113.529C151.919 110.939 161.642 95.8553 159.325 101.262C157.578 105.338 154.292 108.822 151.815 112.457C149.056 116.505 151.414 115.329 153.868 112.923C155.234 111.584 156.564 110.209 157.926 108.865C157.987 108.805 160.17 106.936 160.164 107.046C159.996 110.414 153.787 116.161 151.909 118.567C150.78 120.012 143.451 127.564 144.492 129.761C144.784 130.378 151.791 122.618 152.235 122.112C154.512 119.517 153.02 121.234 155.174 118.753C155.585 118.28 156.152 116.793 156.433 117.354C156.724 117.936 153.318 121.787 153.028 122.158C148.73 127.669 144.109 132.907 139.828 138.437C137.174 141.866 138.824 140.863 140.714 138.344C143.14 135.109 145.146 131.668 147.244 128.222C148.738 125.768 142.076 132.754 141.507 133.353C140.265 134.66 133.017 144.78 130.919 144.5C130.737 144.476 133.304 141.062 133.391 140.956C134.974 139.037 136.476 137.095 137.869 135.032C139.996 131.882 142.021 127.195 145.052 124.77C146.31 123.764 135.493 137.671 139.455 131.86C141.525 128.825 143.179 125.524 145.798 122.905C146.37 122.333 144.698 125.271 144.399 125.75" stroke="#84CC16" stroke-width="3" stroke-linecap="round"/>
<path d="M159.511 82.0919C159.511 79.0876 155.588 86.4377 154.777 87.6424C151.516 92.4846 159.033 83.8233 159.908 82.7682C160.07 82.572 162.499 79.5761 162.916 80.1329C163.951 81.5129 158.327 88.3888 157.692 89.3682C156.23 91.6241 152.562 95.6976 152.562 98.6036C152.562 99.2157 158.27 93.3278 158.718 92.7732C161.183 89.7276 163.545 86.6425 166.111 83.6777C166.197 83.5783 169.233 80.1417 169.073 80.7392C168.226 83.9153 165.513 87.2814 163.896 90.0912C161.382 94.4588 158.528 98.8661 156.946 103.688C155.692 107.508 159.007 104.264 160.001 103.175C163.045 99.8382 165.77 96.2557 168.49 92.6566C168.756 92.3055 172.385 86.6729 173.085 86.8728C173.846 87.0904 170.104 93.2253 169.936 93.4961C167.694 97.1179 165.06 100.427 162.636 103.921C162.444 104.198 158.369 110.436 160.584 108.725C163.975 106.107 166.798 102.789 169.493 99.4898C171.067 97.5624 172.676 94.3791 174.764 92.9597C175.979 92.1334 173.413 95.5799 172.571 96.7845C169.685 100.916 166.347 104.706 163.453 108.818C161.969 110.926 162.061 111.975 164.456 110.078C167.443 107.71 169.936 105.017 172.315 102.055C173.078 101.105 174.886 98.116 176.21 97.8106C176.29 97.7922 174.1 102.062 174.017 102.195C173.245 103.445 169.991 107.16 170.193 108.772C170.442 110.77 173.263 106.151 174.624 104.667C176.516 102.605 182.017 96.8717 178.309 103.081C175.397 107.957 179.023 104.243 180.921 102.662" stroke="#84CC16" stroke-width="3" stroke-linecap="round"/>
<path d="M2.14404 158.76H158.601" stroke="black" stroke-width="4" stroke-linecap="round"/>
<path d="M167.48 159H177.559" stroke="black" stroke-width="4" stroke-linecap="round"/>
<path d="M17.7416 126.365C14.597 126.714 10.8011 128.168 7.87637 129.364C6.94701 129.744 4.42982 130.286 3.82362 131.044C2.90171 132.196 2.78224 132.592 2.26385 134.044C1.75092 135.48 2.14387 137.589 2.14387 139.096C2.14387 140.631 2.98236 142.358 3.10373 143.936C3.18841 145.036 3.81642 146.408 4.59685 147.188C5.30624 147.898 7.70552 147.482 8.67626 147.482C10.3745 147.482 11.8427 146.582 13.4756 146.522C15.281 146.455 18.7249 146.23 19.1947 148.815C19.7148 151.675 22.8255 154.885 19.1814 156.707C16.207 158.194 13.5767 156.62 12.1691 153.961C11.5335 152.76 10.6065 147.854 8.8629 149.161" stroke="black" stroke-width="4" stroke-linecap="round"/>
<path d="M30.3978 158.303C30.2452 158.21 29.9453 158.092 30.1766 157.918C30.8501 157.411 31.9033 157.205 32.6854 156.92C37.0796 155.316 41.5964 153.971 46.0693 152.604C49.0161 151.703 51.9839 150.816 55.0042 150.188C55.4256 150.101 55.8753 149.996 56.3047 149.994C57.4212 149.99 58.5504 150.448 59.6119 150.745C61.6873 151.327 63.7002 152.102 65.7748 152.683C69.1847 153.639 72.6782 154.432 75.89 155.965C76.8916 156.443 78.0103 156.595 78.9767 157.109C79.1638 157.208 80.3339 158.069 80.4186 157.893" stroke="black" stroke-width="4" stroke-linecap="round"/>
<path d="M36.1405 155.34C34.4671 153.693 32.7758 152.1 31.4043 150.18C31.3154 150.055 30.9596 149.736 31.2344 149.736C32.0993 149.736 32.9641 149.736 33.829 149.736C35.1506 149.736 36.7655 149.968 38.0086 149.397C38.5875 149.131 38.7966 148.705 39.0747 148.104C39.6816 146.793 40.2154 145.446 40.8956 144.17C41.2382 143.527 41.3902 142.771 41.7447 142.151C41.8716 141.929 42.0792 142.547 42.2919 142.688C42.9397 143.12 43.7315 143.379 44.4808 143.556C44.7145 143.612 46.7544 144.323 47.0093 144.005C47.4868 143.408 47.8111 142.686 48.1981 142.009" stroke="black" stroke-width="4" stroke-linecap="round"/>
<path d="M48.6167 115.804C50.8758 114.357 53.566 114.462 56.1379 114.245C57.6525 114.118 59.2201 113.974 60.737 113.974C62.0723 113.974 63.0935 114.125 64.3875 113.67C66.2227 113.024 67.7851 111.968 69.3592 110.849C71.4642 109.353 73.1435 107.68 75.0594 105.996C76.3981 104.819 78.6651 104.172 80.3784 103.76C84.0674 102.873 88.1756 103.15 91.9482 103.15C95.2128 103.15 97.4015 102.349 100.223 100.711C102.056 99.6466 104.147 98.5127 105.788 97.1704C107.03 96.1536 108.385 94.9341 109.845 94.2314C112.839 92.7896 116.369 92.0558 119.627 91.4448C120.942 91.1983 122.488 90.9536 123.778 90.9536" stroke="black" stroke-width="4" stroke-linecap="round"/>
<path d="M153.735 80.739C153.44 80.512 160.201 78.2284 161.087 77.9609C163.922 77.1051 167.231 75.5555 170.26 75.5555C171.107 75.5555 172.102 75.4257 172.792 76.0128C175.894 78.6494 177.763 82.5452 179.119 86.3121C179.337 86.9161 180.359 89.1998 179.771 89.8525C179.197 90.4904 177.527 90.6826 176.756 90.9197C175.197 91.3995 173.495 91.9067 172.055 92.6983C170.787 93.3957 172.191 97.0761 172.487 97.9665C173.014 99.5468 173.343 101.142 173.859 102.693" stroke="black" stroke-width="4" stroke-linecap="round"/>
<path d="M178.738 92.783C177.402 90.2776 181.042 97.9831 181.94 100.677C182.39 102.029 182.799 103.447 183.388 104.742C184.68 107.585 180.446 108.603 178.433 109.587C177.073 110.252 175.653 110.66 174.19 111.018C170.93 111.818 168.022 113.636 164.856 114.703C162.997 115.33 159.959 115.609 158.682 117.252C157.131 119.246 155.823 121.687 154.472 123.842C152.662 126.729 150.351 129.129 148.103 131.668C145.61 134.482 143.335 137.502 140.861 140.341C139.004 142.472 137.065 145.228 134.644 146.753C133.805 147.281 132.739 147.487 131.815 147.82C129.532 148.644 127.219 149.379 124.955 150.259C122.392 151.255 119.648 151.465 117.036 152.309C114.772 153.04 112.492 153.743 110.243 154.511C109.31 154.829 108.619 154.974 107.702 155.375C105.954 156.14 104.063 156.587 102.239 157.153C101.244 157.462 98.5548 158.955 97.6313 158.339" stroke="black" stroke-width="4" stroke-linecap="round"/>
<path d="M89.9321 127.162C91.3046 126.552 92.8799 126.603 94.2009 125.942" stroke="black" stroke-width="4" stroke-linecap="round"/>
<path d="M129.58 113.741C129.924 113.46 130.515 113.436 130.925 113.276C131.354 113.109 131.818 113.01 132.257 112.869C132.627 112.75 132.999 112.641 133.363 112.519" stroke="black" stroke-width="4" stroke-linecap="round"/>
<path d="M53.5603 126.138C53.7621 128.559 54.8113 131.073 55.7642 133.284C56.4284 134.825 56.8502 136.589 57.2917 138.216C57.6847 139.664 58.7791 141.442 60.134 142.187C61.532 142.956 63.0696 143.254 64.58 143.715C68.1836 144.814 71.8975 145.815 75.3706 147.272C79.1261 148.847 83.0423 150.253 86.9413 151.423C89.1352 152.081 91.5237 152.797 93.6677 151.745C95.7205 150.738 98.1305 150.349 100.301 149.656C106.356 147.721 112.205 145.098 118.14 142.831C119.997 142.122 122.116 141.076 124.147 140.873C124.745 140.813 125.706 140.133 126.225 139.787" stroke="black" stroke-width="4" stroke-linecap="round"/>
<path d="M127.354 139.394C128.639 138.58 129.545 136.715 130.48 135.537C133.335 131.942 136.777 128.799 139.869 125.407C141.219 123.925 142.466 122.378 143.747 120.841C144.034 120.497 144.244 120.189 144.244 119.75C144.244 117.329 143.073 115.03 142.045 112.898C141.488 111.742 141.168 110.564 140.807 109.346C140.71 109.017 140.656 108.651 140.512 108.364" stroke="black" stroke-width="4" stroke-linecap="round"/>
<path d="M97.0117 110.525C97.543 112.505 98.3433 114.415 98.9538 116.373C100.054 119.9 100.956 123.491 102.249 126.956C102.43 127.442 103.089 128.386 103.089 128.925C103.089 129.087 102.664 128.441 102.773 128.56C105.367 131.391 107.187 134.861 109.526 137.899C110.63 139.334 111.794 140.767 113.001 142.116C113.395 142.556 113.325 142.485 112.919 142.242" stroke="black" stroke-width="4" stroke-linecap="round"/>
<line x1="67.793" y1="143.88" x2="140.672" y2="116.687" stroke="black" stroke-width="4" stroke-linecap="round"/>
<circle cx="33.4519" cy="123.58" r="14.0114" fill="black" stroke="black" stroke-width="4"/>
<circle cx="139.814" cy="86.9824" r="14.0114" fill="black" stroke="black" stroke-width="4"/>
<path d="M135.359 88.6036C135.359 85.7516 136.015 82.3322 139.607 82.3322" stroke="white" stroke-width="4" stroke-linecap="round"/>
<path d="M132.324 65.5409C125.431 66.7817 120.783 71.676 117.668 77.6904C116.614 79.7258 115.989 82.208 115.938 84.5126C115.913 85.6254 115.588 85.5634 116.342 84.5575" stroke="black" stroke-width="4" stroke-linecap="round"/>
<path d="M13.167 112.678C13.2645 111.8 14.3797 110.689 14.8529 110.025C16.025 108.381 17.4516 106.684 18.9439 105.327C21.2073 103.27 23.6633 101.823 26.6202 101.057C29.2492 100.375 31.5107 99.9327 34.2066 99.9327" stroke="black" stroke-width="4" stroke-linecap="round"/>
<path d="M52.1107 71.8124C50.2761 71.8124 48.334 71.2852 46.5136 71.7C43.5535 72.3744 40.1323 75.2243 38.59 77.7691C35.2933 83.2087 37.7446 89.7953 43.4791 92.2001C45.2656 92.9493 47.9415 93.2041 49.8854 93.2566C50.3318 93.2687 52.4269 93.5189 52.7176 93.1555C53.0115 92.7881 52.7176 94.9465 52.7176 95.482C52.7176 96.8676 52.9037 98.9049 53.9315 99.9327" stroke="black" stroke-width="4" stroke-linecap="round"/>
<path d="M44.8275 70.5985C42.8025 66.3797 43.5311 62.1843 46.8506 58.8649C47.2262 58.4892 50.6943 56.1784 50.6943 56.2349" stroke="black" stroke-width="4" stroke-linecap="round"/>
<path d="M43.0068 62.5063C36.4897 63.7189 31.4086 58.4031 30.6663 52.2787C30.1888 48.3393 32.3686 42.3561 36.7354 41.2644" stroke="black" stroke-width="4" stroke-linecap="round"/>
<path d="M40.728 22.6728C38.9728 22.6728 37.4575 21.645 35.6714 21.6062C33.039 21.549 30.6875 22.0926 28.3631 23.3839C22.758 26.4979 20.4622 29.5561 20.4622 36.0056C20.4622 42.5978 25.3265 46.0818 30.4173 48.6274" stroke="black" stroke-width="4" stroke-linecap="round"/>
<path d="M30.2036 20.2156C29.4809 16.331 32.1058 11.1671 35.2722 8.99024C40.1569 5.63201 45.3073 5.73737 50.2394 8.7514C53.102 10.5008 55.6244 14.0406 56.9401 17.1107C57.0921 17.4654 58.1476 21.5072 58.1476 20.2156" stroke="black" stroke-width="4" stroke-linecap="round"/>
<path d="M53.6096 8.99021C52.8005 8.88909 54.6386 7.00901 54.8037 6.84067C56.3039 5.31111 57.7797 4.33105 59.7397 3.44387C64.6626 1.21562 68.3822 1.70544 73.035 3.96135C76.1556 5.47434 80.5982 9.81967 80.5982 13.5281" stroke="black" stroke-width="4" stroke-linecap="round"/>
<path d="M82.2703 51.2645C85.6627 52.8665 87.8902 54.1451 89.6211 57.6069C91.3246 61.0138 91.8284 64.5793 91.1072 68.3546C90.3699 72.215 88.8812 73.658 85.6671 75.5728C84.0844 76.5157 82.4375 77.0589 80.5984 77.0589" stroke="black" stroke-width="4" stroke-linecap="round"/>
<path d="M74.8662 72.0433C76.0569 71.1174 78.539 77.5317 78.6877 78.3327C79.4257 82.3099 78.3917 86.6052 76.3125 90.0358C74.4884 93.0456 71.1753 93.3437 68.2053 94.6002C67.8223 94.7623 65.3127 95.533 65.3127 95.4494" stroke="black" stroke-width="4" stroke-linecap="round"/>
<path d="M65.5517 96.166C65.4643 98.5255 63.7598 99.8686 62.208 101.42" stroke="black" stroke-width="4" stroke-linecap="round"/>
<path d="M75.7671 17.8885C77.0165 16.0512 79.9298 14.745 81.9493 14.0615C85.269 12.9379 88.6813 12.6847 92.1249 13.3959C95.2526 14.0418 98.2857 17.4524 99.6382 20.1796C101.897 24.7335 100.098 29.8921 97.3087 33.7727C95.8239 35.8386 93.644 37.0246 91.4913 38.2206C90.9549 38.5186 91.9062 38.6703 92.0993 38.739C93.3132 39.1706 93.9803 39.8494 94.7168 40.9405C96.5089 43.5954 96.0623 47.3766 94.0192 49.7466C93.2026 50.6939 92.5539 51.23 91.4593 51.8457C91.231 51.9741 89.9051 52.6466 89.7058 52.4473" stroke="black" stroke-width="4" stroke-linecap="round"/>
<path d="M84.7785 139.091C82.3191 139.091 90.0708 139.587 91.8098 141.326C92.2198 141.736 91.9028 143.969 91.8239 144.458C91.6102 145.783 91.8361 145.308 92.8324 144.803C93.3741 144.529 96.8576 142.672 97.2896 143.35C97.8838 144.284 98.3166 145.38 98.9963 146.249C99.3778 146.736 99.8796 146.723 99.631 147.469" stroke="black" stroke-width="2" stroke-linecap="round"/>
<path d="M33.6759 118.929C31.5202 118.519 29.3192 119.749 28.9836 122.131C28.9058 122.683 28.7659 125.028 29.712 125.028" stroke="white" stroke-width="4" stroke-linecap="round"/>
</svg>
