<svg width="181" height="137" viewBox="0 0 181 137" fill="none" xmlns="http://www.w3.org/2000/svg">
<path fill-rule="evenodd" clip-rule="evenodd" d="M103.595 8.60951C104.364 3.14041 109.421 -0.670067 114.89 0.0985645L163.633 6.94904C169.103 7.71767 172.913 12.7744 172.144 18.2435L166.51 58.3341C165.56 58.1758 164.393 57.8502 162.932 57.4421C162.724 57.3841 162.51 57.3245 162.29 57.2634C160.03 56.6354 157.753 56.5403 156.101 56.5036C154.807 56.4748 153.482 56.3213 151.837 56.1305L151.837 56.1304L151.668 56.111C150.044 55.9227 148.097 55.7015 146.085 55.7015C143.047 55.7015 140.585 58.1639 140.585 61.2015C140.585 64.239 143.047 66.7015 146.085 66.7015C147.376 66.7015 148.729 66.844 150.402 67.0378L150.72 67.0748C151.592 67.1764 152.561 67.2891 153.574 67.3741C153.337 68.2058 153.067 68.9643 152.749 69.8598C152.548 70.4241 152.328 71.0427 152.085 71.7682C152.013 71.7485 151.939 71.7293 151.869 71.7122C147.458 70.6392 143.197 70.6926 139.559 70.7382H139.558H139.557C138.853 70.7471 138.171 70.7556 137.517 70.7556C137.469 70.7556 137.433 70.7553 137.38 70.7548L137.257 70.7537C137.146 70.7529 136.977 70.7521 136.791 70.7568C136.438 70.7657 135.813 70.7968 135.092 70.9751C134.319 71.1665 133.446 71.5237 132.61 72.1677C131.784 72.8041 131.199 73.5642 130.787 74.3052C130.405 74.9919 129.881 76.2294 130.031 77.8132C130.197 79.5795 131.114 80.9182 132.118 81.7501C133.611 82.9879 135.326 83.1497 135.724 83.1872L135.755 83.1901C136.422 83.2549 137.041 83.2358 137.378 83.2218C137.532 83.2154 137.682 83.2071 137.777 83.2019L137.822 83.1994L137.867 83.197C139.612 83.2 141.381 83.3068 143.337 83.4269L143.42 83.4319L143.42 83.432C145.269 83.5455 147.294 83.6699 149.349 83.6771C149.33 83.726 149.31 83.7753 149.291 83.8249C149.053 84.432 148.921 84.9823 148.839 85.3836C148.775 85.6997 148.724 86.0329 148.696 86.2069L148.685 86.278L148.677 86.3305C148.463 86.8136 148.305 87.2925 148.187 87.746C147.104 87.6185 146.162 87.6641 145.441 87.7234C144.886 87.7691 144.545 87.8065 144.291 87.8344L144.291 87.8344L144.291 87.8345H144.291C143.953 87.8716 143.77 87.8917 143.442 87.8917C143.813 87.8917 142.106 87.8251 140.96 87.9449C140.608 87.9817 140.142 88.0465 139.639 88.1743C139.202 88.2853 138.36 88.534 137.5 89.1203C136.58 89.7471 135.164 91.1229 134.951 93.4048C134.756 95.4911 135.713 96.989 136.227 97.6492C137.268 98.9879 138.6 99.6049 139.271 99.874C140.053 100.187 140.818 100.366 141.395 100.476C142.49 100.684 143.577 100.761 144.057 100.795L144.127 100.8C145.001 100.862 145.876 100.909 146.76 100.939C146.746 101.037 146.734 101.129 146.724 101.213C146.698 101.425 146.67 101.707 146.655 101.858L146.655 101.858L146.646 101.947L146.643 101.975L146.639 102.011C146.418 102.561 145.87 104.01 145.87 105.643L145.869 105.718C143.849 105.443 141.755 106.307 140.547 108.118C139.56 109.599 139.386 111.385 139.92 112.949C140.238 113.974 140.802 114.738 141.176 115.137C141.843 115.852 142.536 116.204 142.738 116.306C143.033 116.454 143.282 116.547 143.42 116.595C143.68 116.686 143.93 116.751 144.112 116.793C144.352 116.888 144.574 116.971 144.727 117.028L144.727 117.029L144.825 117.065C144.972 117.121 145.071 117.161 145.132 117.186C146.203 117.972 147.286 118.234 147.85 118.339C148.522 118.464 149.125 118.481 149.511 118.48C149.915 118.48 150.288 118.458 150.5 118.445C150.697 118.434 150.758 118.431 150.763 118.43C151.443 118.431 152.14 118.464 152.986 118.504L153.034 118.506H153.035C153.842 118.545 154.793 118.59 155.774 118.59C155.804 118.59 155.835 118.59 155.866 118.59C155.894 118.59 155.923 118.591 155.952 118.591C156.538 118.819 157.216 118.995 157.977 119.052L157.941 119.308C157.172 124.777 152.115 128.587 146.646 127.819L97.9027 120.968C92.4336 120.199 88.6231 115.143 89.3917 109.674L93.9606 77.1644C94.2033 76.8233 94.4003 76.5215 94.5474 76.2902C95.0131 75.5585 95.7489 74.3714 96.3779 73.0597C96.8823 72.0079 97.647 70.2272 97.7599 68.2556C97.7762 68.2093 97.7971 68.1523 97.8236 68.0838C97.8944 67.9007 97.9824 67.6939 98.0846 67.4649C98.1586 67.299 98.222 67.1613 98.2911 67.0111C98.3245 66.9386 98.3593 66.8631 98.3972 66.7802C98.6588 66.2079 98.8452 65.6364 98.9586 65.2768C99.0154 65.0969 99.071 64.914 99.1173 64.7616L99.1297 64.7208C99.1445 64.6719 99.1586 64.6257 99.1721 64.5815C99.1789 64.5591 99.1856 64.5373 99.1922 64.5159C99.7133 64.3433 100.383 64.2164 101.358 64.0663C103.568 63.7263 105.838 63.2407 107.949 62.6374C108.453 62.4937 108.897 62.321 109.189 62.2037C109.321 62.1509 109.454 62.0962 109.56 62.0526L109.561 62.0519L109.604 62.0344C109.726 61.9839 109.818 61.9462 109.903 61.9128C109.955 61.8921 109.997 61.8761 110.03 61.8639C111.19 61.7481 112.433 61.361 113.252 61.055C113.781 60.8574 114.407 60.592 115.015 60.2537C115.277 60.1076 115.878 59.7694 116.507 59.1997C116.802 59.0217 117.344 58.6657 117.865 58.1278C118.308 57.6705 118.838 56.9727 119.185 56.0488C121.465 54.75 122.551 51.9627 121.632 49.4093C120.603 46.5513 117.452 45.0685 114.594 46.0973C114.099 46.2754 113.255 46.4017 111.793 46.3951C111.091 46.392 110.366 46.3616 109.533 46.3261L109.494 46.3244C108.712 46.2911 107.81 46.2527 106.928 46.2527C104.82 46.2527 102.691 45.9851 100.153 45.6574L100.017 45.6398C99.5016 45.5732 98.9681 45.5043 98.4196 45.4372L103.595 8.60951ZM164.347 69.6748C164.548 69.6714 164.737 69.6733 164.915 69.6809L164.423 73.1853C164.073 73.0975 163.706 73.0221 163.32 72.9643C163.68 71.9219 164.053 70.782 164.347 69.6748ZM162.472 87.0406H162.476L162.073 89.9076C160.999 89.3851 160.013 89.2859 159.55 89.2549C159.465 89.2492 159.381 89.2449 159.298 89.242C159.436 88.7212 159.503 88.2955 159.54 88.058L159.549 88.006L159.578 87.8219L159.578 87.82C159.588 87.7545 159.596 87.7085 159.602 87.673C159.665 87.5298 159.756 87.3437 159.907 87.0406H159.915H159.925H159.936H159.946H159.957H159.967H159.978H159.988H159.999H160.009H160.02H160.03H160.041H160.051H160.062H160.072H160.082H160.093H160.103H160.114H160.124H160.135H160.145H160.156H160.166H160.177H160.187H160.198H160.208H160.219H160.229H160.24H160.25H160.261H160.271H160.282H160.292H160.303H160.313H160.323H160.334H160.344H160.355H160.365H160.376H160.386H160.397H160.407H160.418H160.428H160.439H160.449H160.46H160.47H160.481H160.491H160.502H160.512H160.523H160.533H160.544H160.554H160.564H160.575H160.585H160.596H160.606H160.617H160.627H160.638H160.648H160.659H160.669H160.68H160.69H160.701H160.711H160.722H160.732H160.743H160.753H160.764H160.774H160.785H160.795H160.805H160.816H160.826H160.837H160.847H160.858H160.868H160.879H160.889H160.9H160.91H160.921H160.931H160.942H160.952H160.963H160.973H160.984H160.994H161.005H161.015H161.026H161.036H161.046H161.057H161.067H161.078H161.088H161.099H161.109H161.12H161.13H161.141H161.151H161.162H161.172H161.183H161.193H161.204H161.214H161.225H161.235H161.246H161.256H161.267H161.277H161.287H161.298H161.308H161.319H161.329H161.34H161.35H161.361H161.371H161.382H161.392H161.403H161.413H161.424H161.434H161.445H161.455H161.466H161.476H161.487H161.497H161.508H161.518H161.529H161.539H161.549H161.56H161.57H161.581H161.591H161.602H161.612H161.623H161.633H161.644H161.654H161.665H161.675H161.686H161.696H161.707H161.717H161.728H161.738H161.749H161.759H161.77H161.78H161.79H161.801H161.811H161.822H161.832H161.843H161.853H161.864H161.874H161.885H161.895H161.906H161.916H161.927H161.937H161.948H161.958H161.969H161.979H161.99H162H162.011H162.021H162.031H162.042H162.052H162.063H162.073H162.084H162.094H162.105H162.115H162.126H162.136H162.147H162.157H162.168H162.178H162.189H162.199H162.21H162.22H162.231H162.241H162.252H162.262H162.272H162.283H162.293H162.304H162.314H162.325H162.335H162.346H162.356H162.367H162.377H162.388H162.398H162.409H162.419H162.43H162.44H162.451H162.461H162.472ZM160.156 103.536H160.157L159.57 107.712C159.454 107.621 159.332 107.529 159.206 107.441C158.668 107.065 157.877 106.612 156.864 106.355C156.866 106.251 156.867 106.155 156.868 106.067L156.894 105.997L156.936 105.891L156.983 105.767C157.309 104.922 157.454 104.134 157.529 103.578C158.235 103.553 158.893 103.536 159.537 103.536H159.547H159.558H159.568H159.578H159.588H159.598H159.608H159.618H159.629H159.639H159.649H159.659H159.669H159.679H159.689H159.7H159.71H159.72H159.73H159.74H159.75H159.761H159.771H159.781H159.791H159.801H159.811H159.821H159.832H159.842H159.852H159.862H159.872H159.882H159.892H159.903H159.913H159.923H159.933H159.943H159.953H159.963H159.974H159.984H159.994H160.004H160.014H160.024H160.035H160.045H160.055H160.065H160.075H160.085H160.095H160.106H160.116H160.126H160.136H160.146H160.156ZM160.97 84.5937C160.974 84.583 160.972 84.5884 160.964 84.6073L160.97 84.5937Z" fill="#84CC16"/>
<path d="M2 74.5464H65.1538" stroke="black" stroke-width="4" stroke-linecap="round"/>
<path d="M34 43.5464L68 43.5464" stroke="black" stroke-width="4" stroke-linecap="round"/>
<path d="M39 16.5464L43 16.5464" stroke="#84CC16" stroke-width="4" stroke-linecap="round"/>
<path d="M10 43.5464L24 43.5464" stroke="#84CC16" stroke-width="4" stroke-linecap="round"/>
<path d="M51 16.5464L85 16.5464" stroke="black" stroke-width="4" stroke-linecap="round"/>
<path d="M14.9423 119.851L78.0577 117.647" stroke="black" stroke-width="4" stroke-linecap="round"/>
<path d="M65.5 74.0464L75.5 53.5464C79.2818 48.304 81.4645 46.337 85.5 45.0464C85.5 45.0464 112 45.0464 117.5 45.0464C123 45.0464 122.5 50.0464 122.5 53.5464C122.5 57.0464 120.687 58.5027 117.5 60.0464C112.671 61.9731 107.53 62.3916 104 62.5464C100.47 62.7012 97.5 69.5464 97 74.0464C96.5 78.5464 92.5 82.0464 90.5 82.0464C88.5 82.0464 81.5 84.0464 81.5 84.0464" stroke="black" stroke-width="4" stroke-linecap="round"/>
<rect x="132.229" y="100.789" width="15.1268" height="39.1443" rx="7.56341" transform="rotate(-83 132.229 100.789)" stroke="black" stroke-width="4"/>
<rect x="137.229" y="117.226" width="13.5522" height="29.4693" rx="6.77609" transform="rotate(-83 137.229 117.226)" stroke="black" stroke-width="4"/>
<rect x="127.229" y="82.7893" width="15.1268" height="47.8304" rx="7.56341" transform="rotate(-83 127.229 82.7893)" stroke="black" stroke-width="4"/>
<rect x="140.229" y="69.7893" width="15.1268" height="36.6848" rx="7.56341" transform="rotate(-83 140.229 69.7893)" stroke="black" stroke-width="4"/>
<path fill-rule="evenodd" clip-rule="evenodd" d="M87.4594 125.78L136.973 132.739C140.254 133.2 143.288 130.913 143.749 127.632L144.874 119.629L148.845 120.117L147.71 128.189C146.942 133.658 141.885 137.468 136.416 136.7L86.9027 129.741C81.4336 128.972 77.6231 123.916 78.3917 118.447L83.4481 82.4683C84.2003 83.3527 85.2804 83.9605 86.5261 84.0915C86.7725 84.1174 87.0165 84.1237 87.2565 84.1116L82.3528 119.003C81.8916 122.285 84.1779 125.319 87.4594 125.78ZM157.999 54.982L162.045 26.1911C162.814 20.722 159.003 15.6653 153.534 14.8967L104.021 7.93804C98.5519 7.16941 93.4952 10.9799 92.7265 16.449L88.5375 46.2554C89.1577 46.0455 89.8321 45.9631 90.5259 46.036C91.2556 46.1127 91.9285 46.3531 92.512 46.7168L96.6876 17.0057C97.1488 13.7242 100.183 11.4379 103.464 11.8991L152.978 18.8578C156.259 19.3189 158.545 22.353 158.084 25.6344L154.028 54.4945L157.999 54.982Z" fill="black"/>
</svg>
