<svg width="178" height="168" viewBox="0 0 178 168" fill="none" xmlns="http://www.w3.org/2000/svg">
<path d="M33.3168 13.3281H58.5295" stroke="black" stroke-width="4" stroke-linecap="round"/>
<path d="M33.3168 13.3281H58.5295" stroke="black" stroke-width="4" stroke-linecap="round"/>
<path d="M42.3214 155.6H45.9232" stroke="black" stroke-width="4" stroke-linecap="round"/>
<path fill-rule="evenodd" clip-rule="evenodd" d="M177.344 53.1659L124.001 3.4231L81.0409 49.4925V24.1335H8.1041V163.704L73.8373 163.704L81.0409 163.704L139.57 163.704V105.174H128.845L177.344 53.1659Z" fill="#84CC16"/>
<mask id="path-5-inside-1_247_30" fill="white">
<path d="M0 17.5226C0 9.23831 6.71573 2.52258 15 2.52258H73.2445C81.5288 2.52258 88.2445 9.23831 88.2445 17.5226V152.306C88.2445 160.59 81.5288 167.306 73.2445 167.306H15C6.71571 167.306 0 160.59 0 152.306V17.5226Z"/>
</mask>
<path d="M4 17.5226C4 11.4474 8.92487 6.52258 15 6.52258V-1.47742C4.50659 -1.47742 -4 7.02917 -4 17.5226H4ZM15 6.52258H73.2445V-1.47742H15V6.52258ZM73.2445 6.52258C79.3197 6.52258 84.2445 11.4474 84.2445 17.5226H92.2445C92.2445 7.02918 83.738 -1.47742 73.2445 -1.47742V6.52258ZM84.2445 17.5226V152.306H92.2445V17.5226H84.2445ZM84.2445 152.306C84.2445 158.381 79.3197 163.306 73.2445 163.306V171.306C83.7379 171.306 92.2445 162.799 92.2445 152.306H84.2445ZM73.2445 163.306H15V171.306H73.2445V163.306ZM15 163.306C8.92486 163.306 4 158.381 4 152.306H-4C-4 162.799 4.50657 171.306 15 171.306V163.306ZM4 152.306V17.5226H-4V152.306H4Z" fill="black" mask="url(#path-5-inside-1_247_30)"/>
<mask id="path-7-inside-2_247_30" fill="white">
<path fill-rule="evenodd" clip-rule="evenodd" d="M113.546 0L164.783 53.0574L119.129 97.1453H148.612C152.478 97.1453 155.612 100.279 155.612 104.145V160.306C155.612 164.172 152.478 167.306 148.612 167.306L73.1504 167.306L44.7787 167.306C44.7738 167.306 44.7689 167.306 44.7639 167.306H15C6.71572 167.306 0 160.59 0 152.306V17.6985C0 9.41422 6.71573 2.69851 15 2.69851H73.1504C81.4346 2.69851 88.1504 9.41423 88.1504 17.6985V24.5245L113.546 0Z"/>
</mask>
<path d="M164.783 53.0574L167.562 55.9348L170.439 53.1561L167.661 50.2788L164.783 53.0574ZM113.546 0L116.424 -2.77863L113.645 -5.65599L110.768 -2.87736L113.546 0ZM119.129 97.1453L116.35 94.268L109.228 101.145H119.129V97.1453ZM148.612 167.306V171.306V167.306ZM73.1504 167.306V163.306V167.306ZM44.7787 167.306V171.306H44.7787L44.7787 167.306ZM88.1504 24.5245H84.1504V33.9479L90.929 27.4019L88.1504 24.5245ZM167.661 50.2788L116.424 -2.77863L110.669 2.77863L161.906 55.836L167.661 50.2788ZM121.907 100.023L167.562 55.9348L162.005 50.18L116.35 94.268L121.907 100.023ZM148.612 93.1453H119.129V101.145H148.612V93.1453ZM159.612 104.145C159.612 98.0702 154.687 93.1453 148.612 93.1453V101.145C150.269 101.145 151.612 102.488 151.612 104.145H159.612ZM159.612 160.306V104.145H151.612V160.306H159.612ZM148.612 171.306C154.687 171.306 159.612 166.381 159.612 160.306H151.612C151.612 161.963 150.269 163.306 148.612 163.306V171.306ZM73.1504 171.306L148.612 171.306V163.306L73.1504 163.306V171.306ZM73.1504 163.306L44.7787 163.306L44.7787 171.306L73.1504 171.306V163.306ZM44.7639 171.306C44.7628 171.306 44.7622 171.306 44.7651 171.306C44.7671 171.306 44.7726 171.306 44.7787 171.306V163.306C44.7799 163.306 44.7805 163.306 44.7775 163.306C44.7756 163.306 44.77 163.306 44.7639 163.306V171.306ZM44.7639 163.306H15V171.306H44.7639V163.306ZM15 163.306C8.92486 163.306 4 158.381 4 152.306H-4C-4 162.799 4.50658 171.306 15 171.306V163.306ZM4 152.306V17.6985H-4V152.306H4ZM4 17.6985C4 11.6234 8.92486 6.69851 15 6.69851V-1.30149C4.50659 -1.30149 -4 7.20508 -4 17.6985H4ZM15 6.69851H73.1504V-1.30149H15V6.69851ZM73.1504 6.69851C79.2255 6.69851 84.1504 11.6234 84.1504 17.6985H92.1504C92.1504 7.2051 83.6438 -1.30149 73.1504 -1.30149V6.69851ZM84.1504 17.6985V24.5245H92.1504V17.6985H84.1504ZM110.768 -2.87736L85.3717 21.6472L90.929 27.4019L116.325 2.87736L110.768 -2.87736Z" fill="black" mask="url(#path-7-inside-2_247_30)"/>
<path d="M128.315 85.3645L86.6328 125.616" stroke="#040000" stroke-width="4" stroke-linecap="round"/>
<line x1="2.70135" y1="22.1335" x2="86.4436" y2="22.1335" stroke="black" stroke-width="4"/>
<line x1="2.70135" y1="145.496" x2="86.4436" y2="145.496" stroke="black" stroke-width="4"/>
<path d="M150.324 43.0431C149.502 44.7787 148.521 46.317 148.053 48.2154C147.713 49.5959 147.675 51.0215 147.675 52.4345C147.675 54.3915 148.189 56.4682 148.999 58.2516C149.256 58.8169 149.664 59.4351 149.826 60.0038C149.902 60.2694 150.783 61.1059 150.576 61.2093" stroke="black" stroke-width="4" stroke-linecap="round"/>
<path d="M86.4436 66.1265C92.3842 72.497 92.366 72.9085 98.3066 79.279C98.9248 79.9419 99.0356 80.0976 99.6538 80.7605C99.9222 81.0484 100.191 81.3363 100.459 81.6242C101.618 82.8664 103.193 80.5505 104.159 79.7144C107.142 77.1322 109.397 73.7704 109.979 69.7991C110.721 64.7387 104.947 59.3076 100.622 63.34C98.5882 65.2369 101.408 68.268 103.696 67.5254C104.574 67.2402 105.5 66.5269 105.74 65.6191C105.889 65.0542 105.531 64.0958 105.913 63.7394" stroke="black" stroke-width="4" stroke-linecap="round"/>
<line x1="87.3644" y1="64.1551" x2="94.441" y2="57.0785" stroke="black" stroke-width="4" stroke-linecap="round"/>
<path d="M40.5204 73.6584C40.5204 82.369 40.5204 91.0796 40.5204 99.7902C40.5204 100.697 40.5204 101.603 40.5204 102.51C40.5204 102.903 40.5204 103.297 40.5204 103.69C40.5204 105.389 43.2523 104.77 44.5291 104.817C48.4718 104.963 52.4131 104.042 55.5473 101.534C59.5411 98.3394 59.0223 90.4296 53.1096 90.4296C50.3282 90.4296 50.3232 94.5694 52.5029 95.5866C53.3399 95.9771 54.5035 96.0869 55.2981 95.5866C55.7925 95.2753 56.1839 94.3298 56.7065 94.3298" stroke="black" stroke-width="4" stroke-linecap="round"/>
<path d="M30.6668 73.6585C30.3146 71.0803 31.8126 68.3002 33.9939 67.5806C35.775 66.9929 37.5343 67.5937 38.9313 68.9353C39.914 69.8789 40.5204 71.6251 40.5204 73.1093" stroke="black" stroke-width="4" stroke-linecap="round"/>
<line x1="36.2173" y1="81.5635" x2="52.9277" y2="81.5635" stroke="black" stroke-width="4" stroke-linecap="round"/>
<line x1="100.851" y1="112.179" x2="153.978" y2="112.179" stroke="black" stroke-width="4"/>
<line x1="88.2445" y1="123.885" x2="152.177" y2="123.885" stroke="black" stroke-width="4"/>
<rect x="126.263" y="138.69" width="18.5114" height="12.2082" stroke="black" stroke-width="4"/>
<path d="M103.598 13.4499C105.334 14.272 106.872 15.2526 108.77 15.7207C110.151 16.061 111.577 16.0991 112.99 16.0991C114.947 16.0991 117.023 15.5851 118.807 14.7745C119.372 14.5176 119.99 14.11 120.559 13.9475C120.824 13.8716 121.661 12.991 121.764 13.1976" stroke="black" stroke-width="4" stroke-linecap="round"/>
</svg>
